<?xml version="1.0" encoding="UTF-8"?>
<svg id="svg3" width="73" height="73" fill="none" version="1.1" viewBox="0 0 73 73" xmlns="http://www.w3.org/2000/svg">
 <g id="g2" clip-path="url(#clip0_23_261)">
  <g id="g1" clip-path="url(#clip1_23_261)">
   <path id="path1" d="m40.451 9.5752 26.262 45.485c0.4004 0.6936 0.6112 1.4803 0.6112 2.2812 1e-4 0.8009-0.2108 1.5876-0.6112 2.2812s-0.9764 1.2696-1.6699 1.67c-0.6936 0.4005-1.4804 0.6113-2.2812 0.6113h-52.524c-0.80092 0-1.5877-0.2108-2.2812-0.6113-0.69357-0.4004-1.2695-0.9764-1.67-1.67s-0.61123-1.4803-0.61123-2.2812c1e-5 -0.8009 0.21082-1.5876 0.61126-2.2812l26.262-45.485c1.755-3.0417 6.1441-3.0417 7.9022 0zm-3.9511 36.05c-0.8067 0-1.5804 0.3205-2.1508 0.8909s-0.8909 1.3441-0.8909 2.1508 0.3205 1.5804 0.8909 2.1508 1.3441 0.8909 2.1508 0.8909 1.5804-0.3205 2.1508-0.8909 0.8909-1.3441 0.8909-2.1508-0.3205-1.5804-0.8909-2.1508-1.3441-0.8909-2.1508-0.8909zm0-21.292c-0.745 1e-4 -1.4641 0.2736-2.0208 0.7686-0.5567 0.4951-0.9124 1.1773-0.9996 1.9172l-0.0213 0.3558v12.167c9e-4 0.7753 0.2978 1.5209 0.83 2.0847 0.5322 0.5637 1.2595 0.9029 2.0334 0.9484 0.774 0.0454 1.536-0.2064 2.1305-0.704s0.9766-1.2034 1.0682-1.9732l0.0213-0.3559v-12.167c0-0.8067-0.3205-1.5803-0.8909-2.1508-0.5704-0.5704-1.3441-0.8908-2.1508-0.8908z" fill="#de3f3f"/>
  </g>
 </g>
 <defs id="defs3">
  <clipPath id="clip0_23_261">
   <rect id="rect2" width="73" height="73" fill="#fff"/>
  </clipPath>
  <clipPath id="clip1_23_261">
   <rect id="rect3" width="73" height="73" fill="#fff"/>
  </clipPath>
 </defs>
 <path id="path3" d="m8.7974 61.605c-2.2245-0.75926-3.4952-3.1032-2.9211-5.3885 0.16052-0.63904-0.90573 1.2278 18.037-31.58 9.8254-17.017 9.3001-16.181 10.548-16.794 0.80122-0.39353 1.4176-0.51281 2.3534-0.45545 1.2865 0.078847 2.4116 0.65607 3.1575 1.6199 0.52776 0.68199 26.845 46.283 27.067 46.901 0.26899 0.74725 0.25369 2.219-0.03056 2.94-0.48214 1.2229-1.4723 2.2489-2.6152 2.71l-0.52948 0.2136-54.455 0.04138zm29.021-10.163c0.60155-0.28351 1.1151-0.78177 1.4399-1.397 0.21276-0.40302 0.24008-0.5576 0.24094-1.3636 0.0012-1.0879-0.18617-1.5655-0.88003-2.2431-1.4554-1.4213-3.9908-0.96589-4.896 0.87944-0.19181 0.39103-0.22283 0.58157-0.22199 1.3636 8.7e-4 0.80805 0.02781 0.95961 0.24235 1.3636 0.33438 0.62971 0.94509 1.1935 1.5823 1.4608 0.73548 0.30853 1.758 0.28232 2.4925-0.06388zm0.06338-9.1717c0.68317-0.33632 1.2253-0.92335 1.479-1.6016 0.17974-0.48039 0.18485-0.67991 0.18485-7.2145 0-6.5346-0.0051-6.7341-0.18485-7.2145-0.26015-0.69532-0.79397-1.2644-1.5226-1.6231-0.53363-0.2627-0.69525-0.2988-1.338-0.2988s-0.80441 0.03609-1.338 0.2988c-0.7286 0.35869-1.2624 0.92774-1.5226 1.6231-0.17974 0.48039-0.18485 0.67991-0.18485 7.2145 0 6.5068 0.0058 6.736 0.18255 7.2083 0.62464 1.6695 2.5995 2.4176 4.2445 1.6078z" fill="#de3f3f" stroke-width=".090909"/>
 <path id="path4" d="m8.7974 61.605c-1.481-0.5055-2.5404-1.6793-2.9473-3.2658-0.1987-0.77471-0.12816-1.85 0.16861-2.5706 0.12268-0.29788 1.5944-2.9143 3.2705-5.8143 1.6761-2.9 5.3501-9.2614 8.1645-14.136 7.1278-12.347 10.858-18.807 13.307-23.045 2.3333-4.0375 2.6226-4.4225 3.7158-4.9442 0.79654-0.38015 1.4138-0.49716 2.3371-0.44301 1.2941 0.075897 2.4549 0.6772 3.1837 1.6491 0.19167 0.25561 0.63286 0.95566 0.98042 1.5557 0.34756 0.6 1.7891 3.0955 3.2033 5.5455 1.4143 2.45 4.2372 7.3386 6.2731 10.864s6.0035 10.398 8.8168 15.273 5.668 9.8196 6.3437 10.988c1.5682 2.7117 1.5986 2.7888 1.6017 4.0575 0.0021 0.83523-0.03217 1.0875-0.20777 1.5309-0.48509 1.225-1.4738 2.2492-2.6161 2.71l-0.52948 0.2136-54.455 0.04138zm28.786-10.065c0.62614-0.23427 1.3523-0.87937 1.6719-1.4853 0.21863-0.41451 0.24491-0.56186 0.24497-1.3734 6e-5 -0.78132-0.03126-0.97277-0.22289-1.3622-1.1163-2.2686-4.4339-2.2694-5.551-0.0014-0.19237 0.39055-0.22404 0.58254-0.22494 1.3636-0.0012 1.0178 0.12534 1.3684 0.73895 2.0476 0.83416 0.92331 2.1743 1.2485 3.3431 0.81118zm0.32135-9.288c0.71139-0.36168 1.2958-1.0324 1.5007-1.7222 0.21071-0.70953 0.21071-13.442 0-14.152-0.20884-0.70323-0.78762-1.3593-1.537-1.7423-0.56188-0.28717-0.69523-0.31818-1.3682-0.31818s-0.80628 0.03101-1.3682 0.31818c-0.4377 0.2237-0.73794 0.46003-1.0112 0.7959-0.69524 0.8547-0.67386 0.58277-0.64568 8.2124 0.0246 6.6592 0.02797 6.7708 0.21642 7.1781 0.7375 1.5939 2.6282 2.2356 4.213 1.4298z" fill="#de3f3f" stroke-width=".090909"/>
 <path id="path5" d="m8.7974 61.605c-1.9325-0.65984-3.1768-2.5226-3.0459-4.56 0.07588-1.1812-0.58755 0.05116 7.6837-14.273 1.6746-2.9 4.2611-7.3795 5.7477-9.9545 11.554-20.013 13.609-23.546 13.892-23.893 0.74786-0.91479 1.8544-1.4618 3.1105-1.5375 1.9819-0.11955 3.3242 0.68719 4.5059 2.7082 0.30544 0.5224 1.7013 2.9339 3.1018 5.3589 5.3382 9.2428 9.8291 17.022 13.777 23.864 2.2502 3.9 5.2387 9.075 6.6412 11.5s2.6448 4.6409 2.7607 4.9241c0.85335 2.0856-0.18614 4.6468-2.3064 5.6829l-0.71113 0.34749-54.545 0.04154zm29.046-10.183c0.55848-0.27324 1.1281-0.84019 1.4433-1.4365 0.17809-0.33691 0.20884-0.52988 0.20787-1.3045-0.001333-1.0681-0.17556-1.53-0.82023-2.1746-0.64968-0.64968-1.1082-0.82326-2.1746-0.82326s-1.525 0.17358-2.1746 0.82326c-0.53645 0.53645-0.79692 1.1217-0.84964 1.9091-0.07443 1.1117 0.31632 2.0068 1.1793 2.7014 0.81891 0.65916 2.1958 0.79092 3.1887 0.30516zm-0.3726-8.9704c0.90577-0.25418 1.8154-1.2595 1.9867-2.1958 0.06134-0.33525 0.08528-2.8358 0.06832-7.1364l-0.026101-6.6203-0.2251-0.45454c-0.30067-0.60713-0.84899-1.1388-1.5071-1.4615-0.46203-0.2265-0.64609-0.26465-1.2678-0.26282-0.59196 0.0017-0.82362 0.04683-1.2451 0.24232-0.62965 0.29203-1.2334 0.8769-1.5324 1.4843l-0.22251 0.45218v13.909l0.22251 0.45217c0.40896 0.83106 1.2551 1.5016 2.1269 1.6853 0.42092 0.08872 1.1132 0.04854 1.6216-0.09414z" fill="#de3f3f" stroke-width=".090909"/>
</svg>
