<?xml version="1.0" encoding="UTF-8" standalone="no"?>
<svg
   width="28"
   height="30"
   viewBox="0 0 28 30"
   fill="none"
   version="1.1"
   id="svg1"
   xmlns="http://www.w3.org/2000/svg"
   xmlns:svg="http://www.w3.org/2000/svg">
  <defs
     id="defs1" />
  <path
     fill-rule="evenodd"
     clip-rule="evenodd"
     d="m 19.0001,0.00164795 c 0.2189,-10e-9 0.4356,0.04310985 0.6378,0.12686805 0.2022,0.083757 0.3859,0.206523 0.5407,0.361287 0.1548,0.154765 0.2775,0.338497 0.3613,0.540707 0.0837,0.20221 0.1268,0.41893 0.1268,0.6378 0,0.21887 -0.0431,0.4356 -0.1268,0.63781 -0.0838,0.20221 -0.2065,0.38594 -0.3613,0.54071 -0.1548,0.15476 -0.3385,0.27753 -0.5407,0.36128 -0.2022,0.08376 -0.4189,0.12687 -0.6378,0.12687 H 4.00008 V 25.0016 c 0,0.4421 0.1756,0.866 0.48816,1.1786 0.31256,0.3125 0.73648,0.4881 1.17851,0.4881 H 19.0001 c 0.442,0 0.8659,0.1756 1.1785,0.4882 0.3126,0.3125 0.4881,0.7365 0.4881,1.1785 0,0.442 -0.1755,0.8659 -0.4881,1.1785 -0.3126,0.3126 -0.7365,0.4881 -1.1785,0.4881 H 5.66675 C 4.34067,30.0016 3.0689,29.4749 2.13121,28.5372 1.19353,27.5995 0.666748,26.3277 0.666748,25.0016 V 1.66831 C 0.666748,1.22629 0.842343,0.802364 1.1549,0.489804 1.46746,0.177243 1.89139,0.00164795 2.33341,0.00164795 Z M 21.8451,8.82331 C 21.6121,8.5904 21.3153,8.43176 20.9922,8.36742 20.6691,8.30309 20.3342,8.33595 20.0298,8.46187 19.7253,8.58778 19.465,8.80108 19.2818,9.07484 19.0985,9.34861 19.0005,9.67054 19.0001,9.99998 V 13.3333 H 9.00008 c -0.44203,0 -0.86595,0.1756 -1.17851,0.4882 C 7.50901,14.134 7.33341,14.558 7.33341,15 c 0,0.442 0.1756,0.8659 0.48816,1.1785 0.31256,0.3126 0.73648,0.4881 1.17851,0.4881 H 19.0001 V 20 c 10e-5,0.3296 0.0978,0.6517 0.281,0.9257 0.1831,0.2741 0.4434,0.4876 0.7479,0.6137 0.3045,0.1262 0.6395,0.1592 0.9628,0.0949 0.3233,-0.0643 0.6202,-0.223 0.8533,-0.456 l 5,-5 c 0.3124,-0.3125 0.488,-0.7364 0.488,-1.1783 0,-0.442 -0.1756,-0.8658 -0.488,-1.1784 z"
     fill="#de3f3f"
     id="path1" />
  <path
     style="fill:#de3f3f;stroke-width:0.0373599"
     d="m 20.138291,21.557326 c -0.556153,-0.205586 -0.96111,-0.665261 -1.080095,-1.226039 -0.02766,-0.130345 -0.04201,-0.790526 -0.04201,-1.932487 V 16.664293 L 13.85118,16.654063 8.6861738,16.643833 8.4620144,16.554273 C 7.778992,16.281367 7.3599004,15.690339 7.3599004,15 c 0,-0.690339 0.4190916,-1.281367 1.102117,-1.554272 l 0.2241594,-0.08956 5.1650062,-0.01023 5.165006,-0.01023 V 11.6012 c 0,-1.8372319 0.01127,-1.9846118 0.177181,-2.3172638 0.308017,-0.6175735 0.882989,-0.9455176 1.592454,-0.9082803 0.27138,0.014244 0.357909,0.036561 0.591079,0.1524468 0.258006,0.1282288 0.422689,0.2856026 2.968596,2.8368303 1.812645,1.816434 2.721216,2.7527 2.77415,2.858711 0.244859,0.490376 0.244859,1.062338 0,1.552714 -0.05293,0.106011 -0.961505,1.042277 -2.77415,2.858711 -2.558787,2.564135 -2.709469,2.708044 -2.972234,2.838628 -0.255924,0.127185 -0.305226,0.138371 -0.653798,0.148332 -0.304823,0.0087 -0.416091,-0.0037 -0.581176,-0.0647 z"
     id="path2" />
  <path
     style="fill:#de3f3f;stroke-width:0.0373599"
     d="m 20.138291,21.557326 c -0.556153,-0.205586 -0.96111,-0.665261 -1.080095,-1.226039 -0.02766,-0.130345 -0.04201,-0.790526 -0.04201,-1.932487 V 16.664293 L 13.85118,16.654063 8.6861738,16.643833 8.4620144,16.554273 C 8.0167202,16.376352 7.6916647,16.07502 7.4971013,15.659778 7.3887065,15.428439 7.3805159,15.382088 7.3805159,15 c 0,-0.382088 0.00819,-0.428439 0.1165854,-0.659778 0.1945634,-0.415242 0.5196189,-0.716574 0.9649161,-0.894494 l 0.2241594,-0.08956 5.1650062,-0.01023 5.165006,-0.01023 V 11.6012 c 0,-1.8372319 0.01127,-1.9846118 0.177181,-2.3172638 0.308017,-0.6175735 0.882989,-0.9455176 1.592454,-0.9082803 0.27138,0.014244 0.357909,0.036561 0.591079,0.1524468 0.258006,0.1282288 0.422689,0.2856026 2.968596,2.8368303 1.812645,1.816434 2.721216,2.7527 2.77415,2.858711 0.248713,0.498094 0.247176,1.055904 -0.0043,1.560915 -0.0476,0.09559 -1.045653,1.122708 -2.769851,2.85051 -2.558787,2.564135 -2.709469,2.708044 -2.972234,2.838628 -0.255924,0.127185 -0.305226,0.138371 -0.653798,0.148332 -0.304823,0.0087 -0.416091,-0.0037 -0.581176,-0.0647 z"
     id="path3" />
  <path
     style="fill:#de3f3f;stroke-width:0.0373599"
     d="m 20.147714,21.563703 c -0.407701,-0.145156 -0.753651,-0.44833 -0.945918,-0.828958 -0.178337,-0.353049 -0.184693,-0.432235 -0.185163,-2.306974 l -4.44e-4,-1.765255 -5.015566,-2.83e-4 C 10.774761,16.662052 8.9013569,16.648368 8.7504931,16.623886 8.2251943,16.538641 7.7620104,16.190652 7.5187757,15.6985 7.3822037,15.422165 7.3785803,15.404113 7.3785803,15 c 0,-0.404113 0.00362,-0.422165 0.1401954,-0.6985 0.2432347,-0.492152 0.7064186,-0.840141 1.2317174,-0.925386 0.1508638,-0.02448 2.0242679,-0.03817 5.2501299,-0.03835 l 5.015566,-2.83e-4 v -1.735396 c 0,-1.838168 0.01126,-1.9854821 0.177181,-2.3181528 0.308017,-0.6175735 0.882989,-0.9455176 1.592454,-0.9082803 0.27138,0.014244 0.357909,0.036561 0.591079,0.1524468 0.258006,0.1282288 0.422689,0.2856026 2.968596,2.8368303 1.724198,1.727802 2.72225,2.754918 2.769851,2.85051 0.25528,0.512653 0.25528,1.056463 0,1.569116 -0.0476,0.09559 -1.045653,1.122708 -2.769851,2.85051 -2.558787,2.564135 -2.709469,2.708044 -2.972234,2.838628 -0.255829,0.127139 -0.305353,0.138384 -0.653798,0.148452 -0.293292,0.0085 -0.420244,-0.0045 -0.571753,-0.05844 z"
     id="path4" />
</svg>
