<?xml version="1.0" encoding="UTF-8" standalone="no"?>
<svg
   width="73"
   height="73"
   viewBox="0 0 73 73"
   fill="none"
   version="1.1"
   id="svg1"
   sodipodi:docname="MapIcon.svg"
   inkscape:version="1.3.2 (091e20ef0f, 2023-11-25)"
   xmlns:inkscape="http://www.inkscape.org/namespaces/inkscape"
   xmlns:sodipodi="http://sodipodi.sourceforge.net/DTD/sodipodi-0.dtd"
   xmlns="http://www.w3.org/2000/svg"
   xmlns:svg="http://www.w3.org/2000/svg">
  <defs
     id="defs1" />
  <sodipodi:namedview
     id="namedview1"
     pagecolor="#ffffff"
     bordercolor="#000000"
     borderopacity="0.25"
     inkscape:showpageshadow="2"
     inkscape:pageopacity="0.0"
     inkscape:pagecheckerboard="0"
     inkscape:deskcolor="#d1d1d1"
     inkscape:zoom="11"
     inkscape:cx="36.454545"
     inkscape:cy="36.5"
     inkscape:window-width="1920"
     inkscape:window-height="1011"
     inkscape:window-x="0"
     inkscape:window-y="0"
     inkscape:window-maximized="1"
     inkscape:current-layer="svg1" />
  <path
     d="M45.625 57.7917L27.375 51.3737V15.2083L45.625 21.6263M62.3542 9.125H61.8675L45.625 15.5125L27.375 9.125L10.22 14.9042C9.58125 15.1171 9.125 15.6646 9.125 16.3642V62.3542C9.125 62.7575 9.28523 63.1443 9.57044 63.4296C9.85565 63.7148 10.2425 63.875 10.6458 63.875C10.7979 63.875 10.9804 63.875 11.1325 63.7837L27.375 57.4875L45.625 63.875L62.78 58.0958C63.4188 57.7917 63.875 57.3354 63.875 56.6358V10.6458C63.875 10.2425 63.7148 9.85565 63.4296 9.57044C63.1443 9.28523 62.7575 9.125 62.3542 9.125Z"
     fill="#FE0E0E"
     id="path1" />
  <path
     style="fill:#ffffff;fill-opacity:0;stroke-width:0.0909091"
     d="M 10.045455,63.689851 C 9.7111199,63.541255 9.4078435,63.221074 9.2787829,62.880445 9.2110217,62.701604 9.1818182,55.616221 9.1818182,39.354798 c 0,-25.367294 -0.037608,-23.62296 0.5194196,-24.091668 0.1947601,-0.16388 2.7307722,-1.054994 8.9793672,-3.155207 l 8.707953,-2.9268261 9.1218,3.1929331 9.121801,3.192934 8.145514,-3.203246 c 7.836067,-3.081555 8.164383,-3.2016806 8.642235,-3.1620534 0.526646,0.043673 0.844029,0.221111 1.165384,0.651524 l 0.187435,0.2510454 0.02324,23.425611 c 0.02252,22.693928 0.01796,23.435537 -0.145974,23.743339 -0.09307,0.174749 -0.348982,0.429137 -0.568697,0.565308 -0.231235,0.143309 -3.993038,1.454634 -8.931916,3.113572 l -8.532434,2.86599 -9.121065,-3.193058 -9.121064,-3.193057 -1.573774,0.611027 c -11.800657,4.581672 -14.940937,5.774725 -15.191811,5.771658 -0.16008,-0.002 -0.413781,-0.05811 -0.563781,-0.124773 z M 45.636364,39.695931 V 21.57368 l -9.090746,-3.195931 c -4.999911,-1.757762 -9.111274,-3.195931 -9.136363,-3.195931 -0.02509,0 -0.04562,8.154212 -0.04562,18.120471 V 51.42276 l 9.068182,3.1931 c 4.9875,1.756205 9.098864,3.195175 9.136364,3.197711 0.0375,0.0025 0.06818,-8.150402 0.06818,-18.11764 z"
     id="path2" />
  <path
     style="fill:#de3f3f;fill-opacity:1;stroke-width:0.0909091"
     d="M 10.045455,63.689851 C 9.7111199,63.541255 9.4078435,63.221074 9.2787829,62.880445 9.2110217,62.701604 9.1818182,55.616221 9.1818182,39.354798 c 0,-25.367294 -0.037608,-23.62296 0.5194196,-24.091668 0.1947601,-0.16388 2.7307722,-1.054994 8.9793672,-3.155207 l 8.707953,-2.9268261 9.1218,3.1929331 9.121801,3.192934 8.145514,-3.203246 c 7.836067,-3.081555 8.164383,-3.2016806 8.642235,-3.1620534 0.526646,0.043673 0.844029,0.221111 1.165384,0.651524 l 0.187435,0.2510454 0.02324,23.425611 c 0.02252,22.693928 0.01796,23.435537 -0.145974,23.743339 -0.09307,0.174749 -0.348982,0.429137 -0.568697,0.565308 -0.231235,0.143309 -3.993038,1.454634 -8.931916,3.113572 l -8.532434,2.86599 -9.121065,-3.193058 -9.121064,-3.193057 -1.573774,0.611027 c -11.800657,4.581672 -14.940937,5.774725 -15.191811,5.771658 -0.16008,-0.002 -0.413781,-0.05811 -0.563781,-0.124773 z M 45.636364,39.695931 V 21.57368 l -9.090746,-3.195931 c -4.999911,-1.757762 -9.111274,-3.195931 -9.136363,-3.195931 -0.02509,0 -0.04562,8.154212 -0.04562,18.120471 V 51.42276 l 9.068182,3.1931 c 4.9875,1.756205 9.098864,3.195175 9.136364,3.197711 0.0375,0.0025 0.06818,-8.150402 0.06818,-18.11764 z"
     id="path3" />
</svg>
