<?xml version="1.0" encoding="UTF-8"?>
<svg id="svg1" width="73" height="73" fill="none" version="1.1" viewBox="0 0 73 73" xmlns="http://www.w3.org/2000/svg">
 <path id="path1" d="m45.625 57.792-18.25-6.418v-36.165l18.25 6.418m16.729-12.501h-0.4867l-16.242 6.3875-18.25-6.3875-17.155 5.7792c-0.63875 0.2129-1.095 0.7604-1.095 1.46v45.99c0 0.4033 0.16023 0.7901 0.44544 1.0754 0.28521 0.2852 0.67206 0.4454 1.0754 0.4454 0.1521 0 0.3346 0 0.4867-0.0913l16.242-6.2962 18.25 6.3875 17.155-5.7792c0.6388-0.3041 1.095-0.7604 1.095-1.46v-45.99c0-0.4033-0.1602-0.79015-0.4454-1.0754-0.2853-0.28521-0.6721-0.44544-1.0754-0.44544z" fill="#fe0e0e"/>
 <path id="path2" d="m10.045 63.69c-0.33434-0.1486-0.63761-0.46878-0.76667-0.80941-0.067761-0.17884-0.096965-7.2642-0.096965-23.526 0-25.367-0.037608-23.623 0.51942-24.092 0.19476-0.16388 2.7308-1.055 8.9794-3.1552l8.708-2.9268 18.244 6.3859 8.1455-3.2032c7.8361-3.0816 8.1644-3.2017 8.6422-3.1621 0.52665 0.043673 0.84403 0.22111 1.1654 0.65152l0.18744 0.25105 0.02324 23.426c0.02252 22.694 0.01796 23.436-0.14597 23.743-0.09307 0.17475-0.34898 0.42914-0.5687 0.56531-0.23124 0.14331-3.993 1.4546-8.9319 3.1136l-8.5324 2.866-18.242-6.3861-1.5738 0.61103c-11.801 4.5817-14.941 5.7747-15.192 5.7717-0.16008-2e-3 -0.41378-0.05811-0.56378-0.12477zm35.591-23.994v-18.122l-9.0907-3.1959c-4.9999-1.7578-9.1113-3.1959-9.1364-3.1959-0.02509 0-0.04562 8.1542-0.04562 18.12v18.12l9.0682 3.1931c4.9875 1.7562 9.0989 3.1952 9.1364 3.1977 0.0375 0.0025 0.06818-8.1504 0.06818-18.118z" fill-opacity="0" stroke-width=".090909"/>
 <path id="path3" d="m10.045 63.69c-0.33434-0.1486-0.63761-0.46878-0.76667-0.80941-0.067761-0.17884-0.096965-7.2642-0.096965-23.526 0-25.367-0.037608-23.623 0.51942-24.092 0.19476-0.16388 2.7308-1.055 8.9794-3.1552l8.708-2.9268 18.244 6.3859 8.1455-3.2032c7.8361-3.0816 8.1644-3.2017 8.6422-3.1621 0.52665 0.043673 0.84403 0.22111 1.1654 0.65152l0.18744 0.25105 0.02324 23.426c0.02252 22.694 0.01796 23.436-0.14597 23.743-0.09307 0.17475-0.34898 0.42914-0.5687 0.56531-0.23124 0.14331-3.993 1.4546-8.9319 3.1136l-8.5324 2.866-18.242-6.3861-1.5738 0.61103c-11.801 4.5817-14.941 5.7747-15.192 5.7717-0.16008-2e-3 -0.41378-0.05811-0.56378-0.12477zm35.591-23.994v-18.122l-9.0907-3.1959c-4.9999-1.7578-9.1113-3.1959-9.1364-3.1959-0.02509 0-0.04562 8.1542-0.04562 18.12v18.12l9.0682 3.1931c4.9875 1.7562 9.0989 3.1952 9.1364 3.1977 0.0375 0.0025 0.06818-8.1504 0.06818-18.118z" fill="#de3f3f" stroke-width=".090909"/>
</svg>