<?xml version="1.0" encoding="UTF-8"?>
<svg id="svg2" width="73" height="73" fill="none" version="1.1" viewBox="0 0 73 73" xmlns="http://www.w3.org/2000/svg">
 <g id="g2" clip-path="url(#clip0_23_265)" fill="#de3f3f">
  <path id="path1" d="m62.07 49.721c-3.2584-3.5303-7.2125-6.3477-11.613-8.2747-4.4008-1.927-9.1529-2.9218-13.957-2.9218s-9.5563 0.9948-13.957 2.9218-8.3548 4.7444-11.613 8.2747c-0.503 0.5563-0.7844 1.2778-0.7908 2.0278v12.167c0.0106 0.7996 0.3358 1.5629 0.9051 2.1246 0.5693 0.5616 1.3368 0.8765 2.1366 0.8765h46.639c0.8067 0 1.5804-0.3205 2.1508-0.8909s0.8909-1.3441 0.8909-2.1508v-12.167c-0.0162-0.7359-0.2969-1.4414-0.7908-1.9872z"/>
  <path id="path2" d="m36.5 34.472c7.8394 0 14.194-6.355 14.194-14.194s-6.355-14.194-14.194-14.194-14.194 6.3551-14.194 14.194 6.3551 14.194 14.194 14.194z"/>
 </g>
 <defs id="defs2">
  <clipPath id="clip0_23_265">
   <rect id="rect2" width="73" height="73" fill="#fff"/>
  </clipPath>
 </defs>
</svg>
