<?xml version="1.0" encoding="UTF-8" standalone="no"?>
<svg
   width="73"
   height="73"
   viewBox="0 0 73 73"
   fill="none"
   version="1.1"
   id="svg1"
   sodipodi:docname="MapIcon.svg"
   inkscape:version="1.3.2 (091e20ef0f, 2023-11-25)"
   xmlns:inkscape="http://www.inkscape.org/namespaces/inkscape"
   xmlns:sodipodi="http://sodipodi.sourceforge.net/DTD/sodipodi-0.dtd"
   xmlns="http://www.w3.org/2000/svg"
   xmlns:svg="http://www.w3.org/2000/svg">
  <defs
     id="defs1" />
  <sodipodi:namedview
     id="namedview1"
     pagecolor="#ffffff"
     bordercolor="#000000"
     borderopacity="0.25"
     inkscape:showpageshadow="2"
     inkscape:pageopacity="0.0"
     inkscape:pagecheckerboard="0"
     inkscape:deskcolor="#d1d1d1"
     inkscape:zoom="11"
     inkscape:cx="36.454545"
     inkscape:cy="36.5"
     inkscape:window-width="1920"
     inkscape:window-height="1011"
     inkscape:window-x="0"
     inkscape:window-y="0"
     inkscape:window-maximized="1"
     inkscape:current-layer="svg1" />
  <path
     d="M45.625 57.7917L27.375 51.3737V15.2083L45.625 21.6263M62.3542 9.125H61.8675L45.625 15.5125L27.375 9.125L10.22 14.9042C9.58125 15.1171 9.125 15.6646 9.125 16.3642V62.3542C9.125 62.7575 9.28523 63.1443 9.57044 63.4296C9.85565 63.7148 10.2425 63.875 10.6458 63.875C10.7979 63.875 10.9804 63.875 11.1325 63.7837L27.375 57.4875L45.625 63.875L62.78 58.0958C63.4188 57.7917 63.875 57.3354 63.875 56.6358V10.6458C63.875 10.2425 63.7148 9.85565 63.4296 9.57044C63.1443 9.28523 62.7575 9.125 62.3542 9.125Z"
     fill="#FE0E0E"
     id="path1"
     style="fill:#de3f3f;fill-opacity:1" />
</svg>
