<svg xmlns="http://www.w3.org/2000/svg" version="1.0" width="192.000000pt" height="192.000000pt" viewBox="0 0 192.000000 192.000000" preserveAspectRatio="xMidYMid meet">

<g transform="translate(0.000000,192.000000) scale(0.100000,-0.100000)" fill="#000000" stroke="none">
<path d="M0 960 l0 -960 960 0 960 0 0 960 0 960 -960 0 -960 0 0 -960z m1120 528 c81 -37 153 -107 192 -186 28 -56 34 -80 37 -150 4 -99 -13 -167 -70 -288 -43 -90 -215 -352 -279 -424 l-39 -45 -26 30 c-171 200 -290 396 -346 570 -30 92 -24 217 13 296 45 98 125 171 229 209 77 29 212 23 289 -12z"/>
<path d="M910 1265 l0 -85 -86 0 -85 0 3 -52 3 -53 83 -3 82 -3 0 -79 0 -80 50 0 50 0 0 80 0 79 83 3 82 3 3 53 3 52 -85 0 -86 0 0 85 0 85 -50 0 -50 0 0 -85z"/>
</g>
</svg>